<svg width="47" height="47" viewBox="0 0 47 47" fill="none" xmlns="http://www.w3.org/2000/svg">
<g clip-path="url(#clip0)">
<g opacity="0.5">
<path d="M28.1872 35.0585C27.9336 34.9872 27.6799 34.9175 27.4295 34.8413C27.0133 34.7169 26.7613 34.3737 26.4728 34.0868C25.4945 33.1152 24.5295 32.1303 23.5579 31.1504C23.5197 31.1122 23.4833 31.0741 23.4451 31.0376C23.281 30.8851 23.092 30.8735 22.9477 31.0094C22.8035 31.1471 22.8051 31.3626 22.956 31.5218C23.1069 31.6793 23.2611 31.8352 23.4153 31.991C24.0769 32.6609 24.7384 33.3308 25.4 34.0006C25.4315 34.0321 25.4597 34.0686 25.5061 34.1233C24.435 34.4035 23.3921 34.7053 22.2878 34.498C21.9495 34.435 21.6461 34.2924 21.3775 34.0769C20.3362 33.2362 19.2883 32.4022 18.257 31.5483C16.0567 29.7261 13.8697 27.8873 11.6645 26.0733C11.3594 25.823 11.2748 25.6207 11.3826 25.2227C12.5051 21.1041 13.6011 16.9788 14.7054 12.8568C14.7186 12.807 14.7369 12.7573 14.7518 12.7125C16.0866 12.7125 17.4147 12.7125 18.7693 12.7125C18.6118 12.9745 18.4626 13.2132 18.3217 13.4586C17.6551 14.6226 17.0681 15.8214 16.7415 17.1296C16.5558 17.8774 16.4613 18.6385 16.6901 19.3879C17.0201 20.4707 17.6816 21.2417 18.8589 21.4307C19.4724 21.5285 20.056 21.3627 20.6198 21.1273C21.3228 20.8338 21.9313 20.3878 22.5498 19.9534C23.0306 19.6151 23.5197 19.2802 24.0304 18.9917C24.9556 18.4677 25.8958 18.5241 26.8193 19.0182C27.6683 19.4725 28.3912 20.0959 29.0743 20.7642C31.3791 23.0175 33.5628 25.3852 35.6536 27.8375C36.0449 28.2952 36.3948 28.7876 36.7662 29.2618C36.8872 29.4177 36.8988 29.5719 36.8308 29.7592C36.5705 30.4772 35.9404 30.9299 35.1247 30.9697C34.682 30.9912 34.2525 30.9232 33.833 30.7839C33.7501 30.7558 33.6722 30.6928 33.6125 30.6281C32.3971 29.3049 31.1867 27.9801 29.9747 26.6553C29.7856 26.4481 29.5883 26.4199 29.4242 26.5757C29.2683 26.725 29.2783 26.9173 29.4623 27.1196C30.6329 28.4013 31.8052 29.683 32.9774 30.963C33.1814 31.1852 33.4052 31.3792 33.3671 31.7407C33.3207 32.1684 33.2361 32.5647 32.9128 32.8731C32.6259 33.1467 32.2728 33.2611 31.8881 33.3026C31.835 33.3075 31.782 33.3075 31.7289 33.3109C31.3127 33.3341 30.9894 33.213 30.6876 32.8798C29.4275 31.4919 28.1325 30.134 26.8508 28.7644C26.8193 28.7312 26.7862 28.6981 26.753 28.6649C26.5889 28.5041 26.3849 28.4925 26.2423 28.6334C26.103 28.771 26.108 28.9816 26.2622 29.1474C27.2902 30.2467 28.3182 31.3444 29.3462 32.442C29.6049 32.7173 29.8586 32.9975 30.1222 33.2678C30.2134 33.3623 30.2267 33.4501 30.1919 33.5712C29.9647 34.3621 29.5104 34.9093 28.6532 35.0353C28.6416 35.0369 28.6333 35.0502 28.6233 35.0585C28.4791 35.0585 28.3332 35.0585 28.1872 35.0585Z" fill="black"/>
<path d="M6.30062 7.99858C7.65528 8.35838 9.01159 8.71653 10.3662 9.07633C11.1339 9.28028 11.9 9.48422 12.666 9.69314C13.8034 10.0032 14.4501 11.1191 14.1467 12.2582C12.9495 16.74 11.7507 21.2201 10.5486 25.7003C10.2419 26.846 9.11273 27.4993 7.97197 27.1942C5.97067 26.6603 3.97102 26.1231 1.97137 25.5842C0.833927 25.2775 0.183958 24.1599 0.487387 23.0225C1.68286 18.549 2.87834 14.0755 4.08045 9.60195C4.31922 8.71653 4.90783 8.19423 5.81149 8.03174C5.84299 8.02677 5.87118 8.01019 5.90103 7.99858C6.03533 7.99858 6.16798 7.99858 6.30062 7.99858ZM5.3323 24.1649C6.40343 24.1649 7.25568 23.3209 7.25734 22.2597C7.259 21.1803 6.41172 20.3281 5.33728 20.3264C4.2645 20.3248 3.40727 21.1836 3.41059 22.2548C3.41224 23.3159 4.26616 24.1649 5.3323 24.1649Z" fill="black"/>
<path d="M48.1639 24.0356C48.1291 24.1549 48.1009 24.276 48.0595 24.3937C47.8588 24.984 47.4758 25.4101 46.9038 25.6605C45.0252 26.4846 43.1466 27.307 41.268 28.1277C40.1023 28.6384 38.9267 28.1808 38.4177 27.0151C36.6552 22.991 34.8926 18.9685 33.1301 14.9443C33.0372 14.7321 32.9427 14.5215 32.8515 14.3076C32.3972 13.2398 32.8532 12.0443 33.9143 11.5734C35.8311 10.7245 37.7528 9.88216 39.6762 9.04814C40.7258 8.59217 41.9279 9.08628 42.3938 10.1491C43.8629 13.4984 45.3303 16.8494 46.7993 20.2004C47.1741 21.0543 47.5504 21.9082 47.9185 22.7655C48.0164 22.9943 48.0827 23.238 48.1623 23.4751C48.1639 23.6642 48.1639 23.8499 48.1639 24.0356ZM41.1502 22.8699C41.1502 23.9311 42.0124 24.7933 43.0703 24.7933C44.1248 24.7933 44.9986 23.9278 45.0053 22.8766C45.0119 21.827 44.1132 20.9267 43.067 20.9366C42.0108 20.9449 41.1502 21.8137 41.1502 22.8699Z" fill="black"/>
<path d="M36.4148 27.7314C35.9704 27.1909 35.5526 26.6504 35.1032 26.138C33.3987 24.203 31.6992 22.2631 29.8272 20.4856C29.1159 19.8091 28.378 19.1625 27.5457 18.6352C26.8012 18.1626 26.0037 17.8725 25.105 17.9438C24.4832 17.9935 23.9161 18.214 23.3972 18.544C22.8218 18.9104 22.2713 19.3133 21.7109 19.7013C21.1156 20.1142 20.5071 20.5055 19.7941 20.6829C18.6103 20.9764 17.574 20.2982 17.3319 19.0829C17.1959 18.4031 17.2888 17.7365 17.4761 17.0799C17.894 15.6208 18.6053 14.3026 19.4012 13.0209C19.562 12.7606 19.7345 12.6512 20.0511 12.6313C21.182 12.5616 22.3078 12.4273 23.4386 12.356C24.712 12.2748 25.9688 12.4522 27.1991 12.7639C28.7693 13.1619 30.3279 13.6095 31.8915 14.0406C31.9595 14.0589 32.0441 14.1103 32.0689 14.1683C32.3889 14.9095 32.6891 15.6573 33.0124 16.3968C34.5163 19.8406 36.0268 23.2828 37.5373 26.7233C37.592 26.8493 37.5837 26.9157 37.4643 26.9952C37.1095 27.2307 36.7679 27.4811 36.4148 27.7314Z" fill="black"/>
</g>
</g>
<defs>
<clipPath id="clip0">
<rect width="47" height="47" fill="white"/>
</clipPath>
</defs>
</svg>
